<?xml version="1.0" encoding="UTF-8" standalone="no"?>
<!DOCTYPE svg PUBLIC "-//W3C//DTD SVG 1.1//EN" "http://www.w3.org/Graphics/SVG/1.1/DTD/svg11.dtd">
<svg width="100%" height="100%" viewBox="0 0 512 512" version="1.1" xmlns="http://www.w3.org/2000/svg" xmlns:xlink="http://www.w3.org/1999/xlink" xml:space="preserve" xmlns:serif="http://www.serif.com/" style="fill-rule:evenodd;clip-rule:evenodd;stroke-miterlimit:10;">
    <g id="アートボード3" transform="matrix(0.892333,0,0,0.969489,598.515,-4.17362)">
        <rect x="-670.731" y="4.305" width="573.777" height="528.113" style="fill:none;"/>
        <clipPath id="_clip1">
            <rect x="-670.731" y="4.305" width="573.777" height="528.113"/>
        </clipPath>
        <g clip-path="url(#_clip1)">
            <g transform="matrix(3.0204,0,0,2.76111,-875.089,-189.696)">
                <ellipse cx="162.643" cy="165.896" rx="94.983" ry="95.634" style="fill:rgb(112,139,255);"/>
                <clipPath id="_clip2">
                    <ellipse cx="162.643" cy="165.896" rx="94.983" ry="95.634"/>
                </clipPath>
                <g clip-path="url(#_clip2)">
                    <g transform="matrix(0.227744,-0.229304,0.255043,0.25679,55.8331,233.534)">
                        <rect x="212.551" y="66.057" width="364.93" height="374.079" style="fill:rgb(45,84,252);"/>
                    </g>
                </g>
            </g>
            <g transform="matrix(0.93138,0,0,0.684987,-682.052,34.5778)">
                <path d="M303.169,101.842C303.169,87.729 294.013,76.271 282.737,76.271L187.387,76.271C176.11,76.271 166.955,87.729 166.955,101.842L166.955,293.649C166.955,307.761 176.11,319.219 187.387,319.219L282.737,319.219C294.013,319.219 303.169,307.761 303.169,293.649L303.169,101.842Z" style="fill:white;"/>
            </g>
            <g transform="matrix(0.93138,0,0,0.691892,-682.052,215.59)">
                <path d="M303.169,101.587C303.169,87.615 294.013,76.271 282.737,76.271L187.387,76.271C176.11,76.271 166.955,87.615 166.955,101.587L166.955,293.904C166.955,307.876 176.11,319.219 187.387,319.219L282.737,319.219C294.013,319.219 303.169,307.876 303.169,293.904L303.169,101.587Z" style="fill:white;"/>
            </g>
            <g transform="matrix(0.884786,0,0,0.695172,-528.28,215.34)">
                <path d="M303.169,100.207C303.169,86.996 294.013,76.271 282.737,76.271L187.387,76.271C176.11,76.271 166.955,86.996 166.955,100.207L166.955,295.284C166.955,308.494 176.11,319.219 187.387,319.219L282.737,319.219C294.013,319.219 303.169,308.494 303.169,295.284L303.169,100.207Z" style="fill:white;"/>
            </g>
            <g transform="matrix(0.89831,0,0,0.826818,-373.39,-13.3801)">
                <path d="M-53.3,499.1C-60.2,501.6 -61.5,495.7 -67.8,494.1C-71.2,490.9 -77.1,481.1 -81.2,479.4C-84,476 -96,467.1 -100.4,466.4C-102.4,471.7 -95.9,495.2 -97.7,504.2C-98.5,508.6 -99.9,511.5 -101.9,513.9C-103.5,515.1 -107.2,517.1 -109.5,517.6C-112.3,517.2 -114.2,515.3 -114.4,512.8C-117.6,506.1 -125.3,502.2 -129,495.8C-133,493.7 -133,489.6 -134.9,486.3C-139.8,489.8 -154.2,502.1 -159.9,504.6L-163.5,503.8C-168,499 -159.7,492.8 -157.1,489.1L-155.8,492.6C-153.4,491.9 -140.8,478.8 -138.6,477.8C-132.9,467.6 -132.4,474.5 -132.8,460.9C-132,463.2 -130.6,465.8 -131.2,468.3C-128.8,465.5 -127,462.3 -125.1,459.3C-127.3,458.8 -128.9,461.8 -132.6,460.2C-149,453.3 -160.9,419.4 -143.9,408.4C-137.2,407.2 -132,403.3 -126.7,399.7C-132.2,396.5 -138,396 -139.8,389.5C-135.8,388.3 -131.3,388.3 -127.5,386.7C-125.9,388.3 -124.7,384.8 -122.4,386C-120.4,384.8 -113.7,383.7 -114.7,380.5C-110.9,375 -120.8,370.4 -120,367.4C-118.4,360.5 -109.3,364.6 -104.6,366C-101.6,366.9 -96.3,373.4 -94.3,375.7C-92.7,377.8 -91.1,377.5 -88.6,376.1C-82.7,377.5 -76.3,379.5 -75,385.5C-79,389.6 -99.5,395.2 -99.1,399.6C-99.1,400.1 -99.3,402.4 -98.9,402.6C-82.9,399.2 -62.9,395.4 -52.6,409.8C-50.4,412.8 -49.4,418.5 -52.4,421.1C-63.9,431.2 -66.6,443 -80.5,453.3C-82.9,452.8 -84.5,455.2 -87.8,454.7C-90.4,452.6 -91.8,447.6 -96.1,449.9C-97.9,449.9 -99.5,451.1 -100.5,452.4L-100.3,456.7C-80.9,462.2 -66.9,477.1 -53.8,481.1C-47.2,483.8 -43.4,486.9 -35.2,490.1C-32.8,495.4 -49.3,499.3 -53.3,499.1ZM-139.2,410C-140.6,411.9 -140.2,414.2 -140.4,416.4C-135.5,414.6 -130.7,412.7 -125.4,412C-122.4,409.4 -117.7,409.9 -114.5,407.8L-114.3,402.3C-122.4,404.9 -131.5,406 -139.2,410ZM-136.8,421.9C-143.1,423.1 -139.4,429 -138.8,432.7C-137.4,434.8 -138,437.6 -136,439.4C-135.2,442.4 -135,445.8 -133.4,448.6C-126.9,447.2 -120.9,444.2 -116.6,439.6L-117.2,437C-123.5,437 -129.7,435.8 -135.4,433.3C-135.6,431.4 -133.8,431.5 -132.8,430.3C-128.1,429.8 -124.7,426.1 -120.1,425.9C-117.9,423.2 -109.6,425.4 -114.8,419.9C-122,421.2 -129.5,420.4 -136.8,421.9ZM-113.5,468C-114.7,467.6 -116.1,467.5 -117.5,467.6C-121.5,472.2 -125,477.1 -129,481.7C-129,487.7 -119.9,496 -112.8,494.8C-110,489.5 -112.6,483.7 -111.8,478.2C-114.8,474.9 -111.9,471.1 -113.5,468ZM-95.3,411.3C-98.7,412.4 -98.9,416.8 -98.9,419.7C-91.6,417.2 -84,416.5 -82.7,422.8C-82.3,427.5 -86.2,428.5 -88.6,430.6C-92,432 -93.7,433.4 -97.1,434.8C-97.3,435.5 -97.3,438.4 -97.9,438.9C-96.3,438.7 -94.7,438.7 -94.5,440.5C-92.1,441.2 -89.8,442.3 -87.4,443.1C-82.3,441.3 -76.3,424.4 -74.7,419.8C-73.7,416.6 -74.1,413.4 -73.5,410.3C-79.1,406.8 -89.5,409.3 -95.3,411.3Z" style="fill:rgb(42,59,146);fill-rule:nonzero;"/>
            </g>
            <g transform="matrix(0.921449,0,0,0.684828,-537.683,34.6286)">
                <path d="M303.169,101.575C303.169,87.61 294.013,76.271 282.737,76.271L187.387,76.271C176.11,76.271 166.955,87.61 166.955,101.575L166.955,293.915C166.955,307.881 176.11,319.219 187.387,319.219L282.737,319.219C294.013,319.219 303.169,307.881 303.169,293.915L303.169,101.575Z" style="fill:white;"/>
            </g>
            <g transform="matrix(0.89436,0,0,0.878934,-229.912,-218.659)">
                <path d="M-160.3,408.1C-154.5,410.3 -148.5,417.1 -146.4,421.6C-145.8,423 -145,423.9 -144.9,423.9C-144.3,423.9 -143.7,423.2 -143.4,421.8C-139.7,412.4 -139.4,411.6 -108.6,397.9C-108.6,392.5 -108.4,387.5 -108.2,385.9C-108,381 -107.8,376.5 -107.8,375.5C-107.8,371.5 -106,368.1 -110.8,365.7L-114.4,366.8C-112.7,362.5 -109.5,360.6 -106.1,360.6C-99.3,360.6 -89.6,366.7 -89.6,371.4C-89.6,371.9 -89.8,373 -90.2,374.4C-91.4,379.1 -91.7,383.4 -91.9,393.8C-79.5,390.5 -67.8,387.9 -65.1,387.9C-61.8,387.9 -56.4,390.2 -50,394.1C-44.8,397.4 -42.3,400.3 -42.3,403.1C-42.3,405.7 -39.3,405.7 -49.7,416.1C-55.9,422.3 -55.9,422.3 -69.8,434C-66.3,437.5 -65.4,440.4 -65.4,442.7C-65.4,444.1 -66.9,445.3 -68.9,445.3C-69.9,445.3 -72.4,445.1 -74.3,445C-76,444.7 -78.8,444.7 -80.7,444.7C-85.3,444.7 -87.4,445 -93.8,446.4C-94.2,449.7 -94.4,456.8 -94.6,468.4C-94.6,490.1 -97.5,512.3 -99.9,519.9C-100.7,522.5 -101.6,523.9 -102.8,523.9C-104.3,523.9 -104.9,522.7 -106.5,513.5C-108,505 -109.4,492.2 -109.4,448.3C-112.5,449.2 -114.6,449.9 -115.4,450C-118.1,450.9 -119.6,451.7 -122.3,452.4C-123.8,452.9 -125,453.1 -126,453.1C-127.7,453.1 -128.5,452.8 -132.8,450.1C-133.4,449.8 -134,449.6 -134.2,449.6C-134.6,449.6 -135.2,450.6 -135.2,451.3C-135.2,451.6 -135,453 -134.6,454.9C-134.4,455.4 -134.4,456.1 -134.4,456.8C-134.4,459.1 -135.4,460.3 -137.3,460.3C-140.4,460.3 -147.2,456.3 -152.1,449.2C-155.2,445.2 -155.8,443.3 -156.4,435.7C-157,427.7 -158.1,421.7 -163.9,406.8C-163.6,406.8 -160.4,408 -160.3,408.1ZM-121,417.8C-124.3,419.5 -125.4,419.9 -131.2,420.6C-137.4,421.6 -139.9,425.3 -139.9,433.6C-139.9,437.1 -139.5,439.2 -137.6,442.8C-135.7,442.5 -134.3,442.1 -133.7,442.1C-126.5,440 -119.8,437.8 -109,434.6C-108.8,428.9 -108.8,423.7 -108.8,421.4L-108.8,411.5C-112.7,413.1 -115.9,414.8 -115.9,415L-121,417.8ZM-84.7,430.6C-70.2,416.5 -61.5,404.7 -61.5,399C-61.5,397.3 -62.3,396.4 -64.2,396.4C-68.1,396.4 -74.2,398.5 -92.4,405.1C-93.4,418.6 -93.6,420.9 -93.9,432.2C-89.1,431.5 -89.3,431.5 -84.7,430.6Z" style="fill:rgb(191,55,24);fill-rule:nonzero;"/>
            </g>
            <g transform="matrix(0.807019,0,0,0.742793,-534.057,60.4881)">
                <g transform="matrix(1,0,0,1,192,-293.9)">
                    <path d="M-128.8,455.2C-125.6,454.4 -124,453.3 -124,452C-124,450.8 -125.6,449.8 -128.8,448.9C-132,448 -135.7,447.5 -140.1,447.5C-144.5,447.5 -148.2,448 -151.4,448.9C-154.5,449.8 -156.1,450.9 -156.1,452C-156.1,453.3 -154.5,454.4 -151.4,455.2C-151.2,455.3 -150.9,455.3 -150.5,455.4L-150.5,484.2C-150.9,484.3 -151.2,484.3 -151.4,484.4C-154.5,485.4 -156.1,486.4 -156.1,487.6C-156.1,488.9 -154.5,490 -151.4,490.8C-151.2,490.9 -150.9,490.9 -150.5,491L-150.5,519.8C-150.9,519.9 -151.2,519.9 -151.4,520C-154.5,520.9 -156.1,521.9 -156.1,523.2C-156.1,524.5 -154.5,525.6 -151.4,526.4C-148.3,527.2 -144.5,527.6 -140.1,527.6C-135.8,527.6 -132,527.2 -128.8,526.4C-125.6,525.6 -124,524.5 -124,523.2C-124,522 -125.6,520.9 -128.8,520C-129.2,519.9 -129.7,519.7 -130.1,519.7L-130.1,491.1C-129.7,491 -129.2,490.8 -128.8,490.8C-125.6,490 -124,488.9 -124,487.6C-124,486.4 -125.6,485.4 -128.8,484.4C-129.2,484.3 -129.7,484.2 -130.1,484.1L-130.1,455.5C-129.7,455.3 -129.2,455.2 -128.8,455.2ZM-133.2,524.5C-135.2,524.9 -137.4,525.1 -140,525.1C-142.6,525.1 -144.9,524.9 -146.8,524.5C-148.7,524.1 -149.6,523.6 -149.6,522.9C-149.6,522.3 -148.6,521.8 -146.7,521.3C-146,521.2 -145.2,521 -144.3,520.9L-144.3,491.9C-143,492 -141.6,492 -140,492C-138.4,492 -137,492 -135.5,491.9L-135.5,521C-134.7,521.1 -133.9,521.2 -133.2,521.3C-131.2,521.8 -130.2,522.4 -130.2,522.9C-130.2,523.6 -131.2,524.1 -133.2,524.5ZM-133.2,489.2C-135.2,489.6 -137.4,489.8 -140,489.8C-142.6,489.8 -144.9,489.6 -146.8,489.2C-148.7,488.8 -149.6,488.3 -149.6,487.6C-149.6,487 -148.7,486.5 -146.8,486C-144.9,485.5 -142.7,485.3 -140,485.3C-137.4,485.3 -135.2,485.5 -133.2,486C-131.2,486.5 -130.2,487 -130.2,487.6C-130.2,488.2 -131.2,488.8 -133.2,489.2ZM-133.2,453.6C-133.9,453.8 -134.7,454 -135.5,454L-135.5,483.2C-137,483.1 -138.5,483 -140,483C-141.5,483 -143,483 -144.3,483.1L-144.3,454C-145.2,453.9 -146,453.8 -146.7,453.6C-148.6,453.2 -149.6,452.7 -149.6,452.1C-149.6,451.5 -148.7,451 -146.8,450.5C-144.9,450 -142.7,449.8 -140,449.8C-137.4,449.8 -135.2,450 -133.2,450.5C-131.2,451 -130.2,451.5 -130.2,452.1C-130.2,452.7 -131.2,453.2 -133.2,453.6Z" style="fill:rgb(3,130,73);fill-rule:nonzero;stroke:rgb(3,130,73);stroke-width:2px;"/>
                </g>
                <g transform="matrix(1,0,0,1,192,-293.9)">
                    <path d="M-92.8,362.9C-89.6,362.1 -88,361 -88,359.7C-88,358.5 -89.6,357.5 -92.8,356.6C-96,355.7 -99.7,355.2 -104.1,355.2C-108.5,355.2 -112.2,355.7 -115.4,356.6C-118.5,357.5 -120.1,358.6 -120.1,359.7C-120.1,361 -118.5,362.1 -115.4,362.9C-115.2,363 -114.9,363 -114.5,363.1L-114.5,391.9C-114.9,392 -115.2,392 -115.4,392.1C-118.5,393.1 -120.1,394.1 -120.1,395.3C-120.1,396.6 -118.5,397.7 -115.4,398.5C-115.2,398.6 -114.9,398.6 -114.5,398.7L-114.5,427.5C-114.9,427.6 -115.2,427.6 -115.4,427.7C-118.5,428.6 -120.1,429.6 -120.1,430.9C-120.1,432.2 -118.5,433.3 -115.4,434.1C-112.3,434.9 -108.5,435.3 -104.1,435.3C-99.8,435.3 -96,434.9 -92.8,434.1C-89.6,433.3 -88,432.2 -88,430.9C-88,429.7 -89.6,428.6 -92.8,427.7C-93.2,427.6 -93.7,427.4 -94.1,427.4L-94.1,398.8C-93.7,398.7 -93.2,398.5 -92.8,398.5C-89.6,397.7 -88,396.6 -88,395.3C-88,394.1 -89.6,393.1 -92.8,392.1C-93.2,392 -93.7,391.9 -94.1,391.8L-94.1,363.2C-93.7,363.1 -93.3,362.9 -92.8,362.9ZM-97.2,432.2C-99.2,432.6 -101.4,432.8 -104,432.8C-106.6,432.8 -108.9,432.6 -110.8,432.2C-112.7,431.8 -113.6,431.3 -113.6,430.6C-113.6,430 -112.6,429.5 -110.7,429C-110,428.9 -109.2,428.7 -108.3,428.6L-108.3,399.6C-107,399.7 -105.6,399.7 -104,399.7C-102.4,399.7 -101,399.7 -99.5,399.6L-99.5,428.7C-98.7,428.8 -97.9,428.9 -97.2,429C-95.2,429.5 -94.2,430.1 -94.2,430.6C-94.3,431.3 -95.3,431.8 -97.2,432.2ZM-97.2,396.9C-99.2,397.3 -101.4,397.5 -104,397.5C-106.6,397.5 -108.9,397.3 -110.8,396.9C-112.7,396.5 -113.6,396 -113.6,395.3C-113.6,394.7 -112.7,394.2 -110.8,393.7C-108.9,393.2 -106.7,393 -104,393C-101.4,393 -99.2,393.2 -97.2,393.7C-95.2,394.2 -94.2,394.7 -94.2,395.3C-94.3,395.9 -95.3,396.5 -97.2,396.9ZM-97.2,361.3C-97.9,361.5 -98.7,361.7 -99.5,361.7L-99.5,391C-101,390.9 -102.5,390.8 -104,390.8C-105.5,390.8 -107,390.8 -108.3,390.9L-108.3,361.8C-109.2,361.7 -110,361.6 -110.7,361.4C-112.6,361 -113.6,360.5 -113.6,359.9C-113.6,359.3 -112.7,358.8 -110.8,358.3C-108.9,357.8 -106.7,357.6 -104,357.6C-101.4,357.6 -99.2,357.8 -97.2,358.3C-95.2,358.8 -94.2,359.3 -94.2,359.9C-94.3,360.5 -95.3,361 -97.2,361.3Z" style="fill:rgb(3,130,73);fill-rule:nonzero;stroke:rgb(3,130,73);stroke-width:2px;"/>
                </g>
                <g transform="matrix(1,0,0,1,192,-293.9)">
                    <path d="M-56.9,455.2C-53.7,454.4 -52.1,453.3 -52.1,452C-52.1,450.8 -53.7,449.8 -56.9,448.9C-60.1,448 -63.8,447.5 -68.2,447.5C-72.6,447.5 -76.3,448 -79.5,448.9C-82.6,449.8 -84.2,450.9 -84.2,452C-84.2,453.3 -82.6,454.4 -79.5,455.2C-79.3,455.3 -79,455.3 -78.6,455.4L-78.6,484.2C-79,484.3 -79.3,484.3 -79.5,484.4C-82.6,485.4 -84.2,486.4 -84.2,487.6C-84.2,488.9 -82.6,490 -79.5,490.8C-79.3,490.9 -79,490.9 -78.6,491L-78.6,519.8C-79,519.9 -79.3,519.9 -79.5,520C-82.6,520.9 -84.2,521.9 -84.2,523.2C-84.2,524.5 -82.6,525.6 -79.5,526.4C-76.4,527.2 -72.6,527.6 -68.2,527.6C-63.9,527.6 -60.1,527.2 -56.9,526.4C-53.7,525.6 -52.1,524.5 -52.1,523.2C-52.1,522 -53.7,520.9 -56.9,520C-57.3,519.9 -57.8,519.7 -58.2,519.7L-58.2,491.1C-57.8,491 -57.3,490.8 -56.9,490.8C-53.7,490 -52.1,488.9 -52.1,487.6C-52.1,486.4 -53.7,485.4 -56.9,484.4C-57.3,484.3 -57.8,484.2 -58.2,484.1L-58.2,455.5C-57.8,455.3 -57.3,455.2 -56.9,455.2ZM-61.3,524.5C-63.3,524.9 -65.5,525.1 -68.1,525.1C-70.7,525.1 -73,524.9 -74.9,524.5C-76.8,524.1 -77.7,523.6 -77.7,522.9C-77.7,522.3 -76.7,521.8 -74.8,521.3C-74.1,521.2 -73.3,521 -72.4,520.9L-72.4,491.9C-71.1,492 -69.7,492 -68.1,492C-66.5,492 -65.1,492 -63.6,491.9L-63.6,521C-62.8,521.1 -62,521.2 -61.3,521.3C-59.3,521.8 -58.3,522.4 -58.3,522.9C-58.3,523.6 -59.3,524.1 -61.3,524.5ZM-61.3,489.2C-63.3,489.6 -65.5,489.8 -68.1,489.8C-70.7,489.8 -73,489.6 -74.9,489.2C-76.8,488.8 -77.7,488.3 -77.7,487.6C-77.7,487 -76.8,486.5 -74.9,486C-73,485.5 -70.8,485.3 -68.1,485.3C-65.5,485.3 -63.3,485.5 -61.3,486C-59.3,486.5 -58.3,487 -58.3,487.6C-58.3,488.2 -59.3,488.8 -61.3,489.2ZM-61.3,453.6C-62,453.8 -62.8,454 -63.6,454L-63.6,483.2C-65.1,483.1 -66.6,483 -68.1,483C-69.6,483 -71.1,483 -72.4,483.1L-72.4,454C-73.3,453.9 -74.1,453.8 -74.8,453.6C-76.7,453.2 -77.7,452.7 -77.7,452.1C-77.7,451.5 -76.8,451 -74.9,450.5C-73,450 -70.8,449.8 -68.1,449.8C-65.5,449.8 -63.3,450 -61.3,450.5C-59.3,451 -58.3,451.5 -58.3,452.1C-58.3,452.7 -59.3,453.2 -61.3,453.6Z" style="fill:rgb(3,130,73);fill-rule:nonzero;stroke:rgb(3,130,73);stroke-width:2px;"/>
                </g>
            </g>
            <g transform="matrix(0.922466,0,0,0.848548,-226.57,151.033)">
                <g id="g3661" transform="matrix(4.96327,0,0,4.98168,220.285,-219.446)">
                    <g id="g3889" transform="matrix(0.744286,0,0,0.744286,-33.4975,1.80456)">
                        <path id="path4301" d="M-27.6,108.8C-27.6,112.5 -30.6,115.5 -34.3,115.5C-38,115.5 -41,112.5 -41,108.8C-41,105.1 -38,102.1 -34.3,102.1C-30.6,102.1 -27.6,105.1 -27.6,108.8Z" style="fill:rgb(42,59,146);fill-rule:nonzero;"/>
                        <g id="g3847" transform="matrix(0.707107,-0.707107,0.707107,0.707107,-15.7195,21.1123)">
                            <path id="path3849" d="M-75.5,48.8C-75.5,48.8 -76.7,49.8 -78.2,49.8C-79.7,49.8 -80.9,48.8 -80.9,48.8C-80.9,48.8 -79.7,47.8 -78.2,47.8C-76.7,47.8 -75.5,48.8 -75.5,48.8Z" style="fill:white;fill-rule:nonzero;"/>
                            <path id="path3851" d="M-74.8,48.8C-74.8,48.8 -73.6,47.8 -72.1,47.8C-70.6,47.8 -69.4,48.8 -69.4,48.8C-69.4,48.8 -70.6,49.8 -72.1,49.8C-73.6,49.8 -74.8,48.8 -74.8,48.8Z" style="fill:white;fill-rule:nonzero;"/>
                            <path id="path3853" d="M-75.2,49.2C-75.2,49.2 -74.2,50.4 -74.2,51.9C-74.2,53.4 -75.2,54.6 -75.2,54.6C-75.2,54.6 -76.2,53.4 -76.2,51.9C-76.2,50.4 -75.2,49.2 -75.2,49.2Z" style="fill:white;fill-rule:nonzero;"/>
                            <path id="path3855" d="M-75.2,48.5C-75.2,48.5 -76.2,47.3 -76.2,45.8C-76.2,44.3 -75.2,43.1 -75.2,43.1C-75.2,43.1 -74.2,44.3 -74.2,45.8C-74.2,47.3 -75.2,48.5 -75.2,48.5Z" style="fill:white;fill-rule:nonzero;"/>
                        </g>
                    </g>
                    <g id="g5324" transform="matrix(0.744286,0,0,0.744286,-45.4975,1.80456)">
                        <path id="path5326" d="M-27.6,108.8C-27.6,112.5 -30.6,115.5 -34.3,115.5C-38,115.5 -41,112.5 -41,108.8C-41,105.1 -38,102.1 -34.3,102.1C-30.6,102.1 -27.6,105.1 -27.6,108.8Z" style="fill:rgb(3,130,73);fill-rule:nonzero;"/>
                        <g id="g5328" transform="matrix(0.707107,-0.707107,0.707107,0.707107,-15.7195,21.1123)">
                            <path id="path5330" d="M-75.5,48.8C-75.5,48.8 -76.7,49.8 -78.2,49.8C-79.7,49.8 -80.9,48.8 -80.9,48.8C-80.9,48.8 -79.7,47.8 -78.2,47.8C-76.7,47.8 -75.5,48.8 -75.5,48.8Z" style="fill:white;fill-rule:nonzero;"/>
                            <path id="path5332" d="M-74.8,48.8C-74.8,48.8 -73.6,47.8 -72.1,47.8C-70.6,47.8 -69.4,48.8 -69.4,48.8C-69.4,48.8 -70.6,49.8 -72.1,49.8C-73.6,49.8 -74.8,48.8 -74.8,48.8Z" style="fill:white;fill-rule:nonzero;"/>
                            <path id="path5334" d="M-75.2,49.2C-75.2,49.2 -74.2,50.4 -74.2,51.9C-74.2,53.4 -75.2,54.6 -75.2,54.6C-75.2,54.6 -76.2,53.4 -76.2,51.9C-76.2,50.4 -75.2,49.2 -75.2,49.2Z" style="fill:white;fill-rule:nonzero;"/>
                            <path id="path5336" d="M-75.2,48.5C-75.2,48.5 -76.2,47.3 -76.2,45.8C-76.2,44.3 -75.2,43.1 -75.2,43.1C-75.2,43.1 -74.2,44.3 -74.2,45.8C-74.2,47.3 -75.2,48.5 -75.2,48.5Z" style="fill:white;fill-rule:nonzero;"/>
                        </g>
                    </g>
                    <g id="g5340" transform="matrix(0.744286,0,0,0.744286,-45.4975,19.8046)">
                        <path id="path5342" d="M-27.6,108.8C-27.6,112.5 -30.6,115.5 -34.3,115.5C-38,115.5 -41,112.5 -41,108.8C-41,105.1 -38,102.1 -34.3,102.1C-30.6,102.1 -27.6,105.1 -27.6,108.8Z" style="fill:rgb(42,59,146);fill-rule:nonzero;"/>
                        <g id="g5344" transform="matrix(0.707107,-0.707107,0.707107,0.707107,-15.7195,21.1123)">
                            <path id="path5346" d="M-75.5,48.8C-75.5,48.8 -76.7,49.8 -78.2,49.8C-79.7,49.8 -80.9,48.8 -80.9,48.8C-80.9,48.8 -79.7,47.8 -78.2,47.8C-76.7,47.8 -75.5,48.8 -75.5,48.8Z" style="fill:white;fill-rule:nonzero;"/>
                            <path id="path5348" d="M-74.8,48.8C-74.8,48.8 -73.6,47.8 -72.1,47.8C-70.6,47.8 -69.4,48.8 -69.4,48.8C-69.4,48.8 -70.6,49.8 -72.1,49.8C-73.6,49.8 -74.8,48.8 -74.8,48.8Z" style="fill:white;fill-rule:nonzero;"/>
                            <path id="path5350" d="M-75.2,49.2C-75.2,49.2 -74.2,50.4 -74.2,51.9C-74.2,53.4 -75.2,54.6 -75.2,54.6C-75.2,54.6 -76.2,53.4 -76.2,51.9C-76.2,50.4 -75.2,49.2 -75.2,49.2Z" style="fill:white;fill-rule:nonzero;"/>
                            <path id="path5352" d="M-75.2,48.5C-75.2,48.5 -76.2,47.3 -76.2,45.8C-76.2,44.3 -75.2,43.1 -75.2,43.1C-75.2,43.1 -74.2,44.3 -74.2,45.8C-74.2,47.3 -75.2,48.5 -75.2,48.5Z" style="fill:white;fill-rule:nonzero;"/>
                        </g>
                    </g>
                    <g id="g5354" transform="matrix(0.744286,0,0,0.744286,-33.4975,19.8046)">
                        <path id="path5356" d="M-27.6,108.8C-27.6,112.5 -30.6,115.5 -34.3,115.5C-38,115.5 -41,112.5 -41,108.8C-41,105.1 -38,102.1 -34.3,102.1C-30.6,102.1 -27.6,105.1 -27.6,108.8Z" style="fill:rgb(3,130,73);fill-rule:nonzero;"/>
                        <g id="g5358" transform="matrix(0.707107,-0.707107,0.707107,0.707107,-15.7195,21.1123)">
                            <path id="path5360" d="M-75.5,48.8C-75.5,48.8 -76.7,49.8 -78.2,49.8C-79.7,49.8 -80.9,48.8 -80.9,48.8C-80.9,48.8 -79.7,47.8 -78.2,47.8C-76.7,47.8 -75.5,48.8 -75.5,48.8Z" style="fill:white;fill-rule:nonzero;"/>
                            <path id="path5362" d="M-74.8,48.8C-74.8,48.8 -73.6,47.8 -72.1,47.8C-70.6,47.8 -69.4,48.8 -69.4,48.8C-69.4,48.8 -70.6,49.8 -72.1,49.8C-73.6,49.8 -74.8,48.8 -74.8,48.8Z" style="fill:white;fill-rule:nonzero;"/>
                            <path id="path5364" d="M-75.2,49.2C-75.2,49.2 -74.2,50.4 -74.2,51.9C-74.2,53.4 -75.2,54.6 -75.2,54.6C-75.2,54.6 -76.2,53.4 -76.2,51.9C-76.2,50.4 -75.2,49.2 -75.2,49.2Z" style="fill:white;fill-rule:nonzero;"/>
                            <path id="path5366" d="M-75.2,48.5C-75.2,48.5 -76.2,47.3 -76.2,45.8C-76.2,44.3 -75.2,43.1 -75.2,43.1C-75.2,43.1 -74.2,44.3 -74.2,45.8C-74.2,47.3 -75.2,48.5 -75.2,48.5Z" style="fill:white;fill-rule:nonzero;"/>
                        </g>
                    </g>
                </g>
                <g id="g3081" transform="matrix(1,0,0,1,-1.08276e-08,-4.18398e-06)">
                    <path id="path5370" d="M-77.7,237.8C-77.7,251.5 -88.8,262.7 -102.6,262.7C-116.4,262.7 -127.5,251.6 -127.5,237.8C-127.5,224 -116.4,212.9 -102.6,212.9C-88.8,212.9 -77.7,224 -77.7,237.8Z" style="fill:rgb(191,55,24);fill-rule:nonzero;"/>
                    <g id="g5372" transform="matrix(2.6182,-2.61679,2.6182,2.61679,-34.1074,-87.2817)">
                        <path id="path5374" d="M-75.5,49C-75.5,49 -76.7,50 -78.2,50C-79.7,50 -80.9,49 -80.9,49C-80.9,49 -79.7,48 -78.2,48C-76.7,48 -75.5,49 -75.5,49Z" style="fill:white;fill-rule:nonzero;"/>
                        <path id="path5376" d="M-74.8,49C-74.8,49 -73.6,48 -72.1,48C-70.6,48 -69.4,49 -69.4,49C-69.4,49 -70.6,50 -72.1,50C-73.6,50 -74.8,49 -74.8,49Z" style="fill:white;fill-rule:nonzero;"/>
                        <path id="path5378" d="M-75.2,49.4C-75.2,49.4 -74.2,50.6 -74.2,52.1C-74.2,53.6 -75.2,54.8 -75.2,54.8C-75.2,54.8 -76.2,53.6 -76.2,52.1C-76.2,50.6 -75.2,49.4 -75.2,49.4Z" style="fill:white;fill-rule:nonzero;"/>
                        <path id="path5380" d="M-75.2,48.7C-75.2,48.7 -76.2,47.5 -76.2,46C-76.2,44.5 -75.2,43.3 -75.2,43.3C-75.2,43.3 -74.2,44.5 -74.2,46C-74.2,47.5 -75.2,48.7 -75.2,48.7Z" style="fill:white;fill-rule:nonzero;"/>
                    </g>
                </g>
            </g>
        </g>
    </g>
</svg>
